RBDS028runT25_grf
version=1
nRows=24
nColumns=19
inDegrees=no
endheader
time	ground_force_r_vx	ground_force_r_vy	ground_force_r_vz	ground_force_r_px	ground_force_r_py	ground_force_r_pz	ground_force_r_mx	ground_force_r_my	ground_force_r_mz	ground_force_l_vx	ground_force_l_vy	ground_force_l_vz	ground_force_l_px	ground_force_l_py	ground_force_l_pz	ground_force_l_mx	ground_force_l_my	ground_force_l_mz
      0.00000000	      0.00000000	      0.00000000	      0.00000000	      0.00000000	      0.00000000	      0.00000000	      0.00000000	      0.00000000	      0.00000000	   -121.15410390	   1147.28717143	    -21.89311219	      2.06082067	      0.00000000	      0.96732698	     -0.00000000	      1.76354862	     -0.00000000
      0.00100000	      0.00000000	      0.00000000	      0.00000000	      0.00000000	      0.00000000	      0.00000000	      0.00000000	      0.00000000	      0.00000000	   -120.22714666	   1155.84479870	    -18.72901035	      2.05957681	      0.00000000	      0.96724196	     -0.00000000	      1.95589290	     -0.00000000
      0.00200000	      0.00000000	      0.00000000	      0.00000000	      0.00000000	      0.00000000	      0.00000000	      0.00000000	      0.00000000	      0.00000000	   -119.30018942	   1164.40242597	    -15.56490851	      2.05833295	      0.00000000	      0.96715694	     -0.00000000	      2.14823718	     -0.00000000
      0.00300000	      0.00000000	      0.00000000	      0.00000000	      0.00000000	      0.00000000	      0.00000000	      0.00000000	      0.00000000	      0.00000000	   -118.37323218	   1172.96005325	    -12.40080667	      2.05708909	      0.00000000	      0.96707192	     -0.00000000	      2.34058146	     -0.00000000
      0.00400000	      0.00000000	      0.00000000	      0.00000000	      0.00000000	      0.00000000	      0.00000000	      0.00000000	      0.00000000	      0.00000000	   -117.41945591	   1181.47735655	     -9.27146969	      2.05584027	      0.00000000	      0.96698686	     -0.00000000	      2.53118330	     -0.00000000
      0.00500000	      0.00000000	      0.00000000	      0.00000000	      0.00000000	      0.00000000	      0.00000000	      0.00000000	      0.00000000	      0.00000000	   -116.45227012	   1189.97449788	     -6.15951515	      2.05458898	      0.00000000	      0.96690177	      0.00000000	      2.72091391	     -0.00000000
      0.00600000	      0.00000000	      0.00000000	      0.00000000	      0.00000000	      0.00000000	      0.00000000	      0.00000000	      0.00000000	      0.00000000	   -115.48508433	   1198.47163920	     -3.04756061	      2.05333768	      0.00000000	      0.96681668	      0.00000000	      2.91064452	     -0.00000000
      0.00700000	      0.00000000	      0.00000000	      0.00000000	      0.00000000	      0.00000000	      0.00000000	      0.00000000	      0.00000000	      0.00000000	   -114.49232710	   1206.90506435	      0.02861193	      2.05208063	      0.00000000	      0.96673196	      0.00000000	      3.09779994	     -0.00000000
      0.00800000	      0.00000000	      0.00000000	      0.00000000	      0.00000000	      0.00000000	      0.00000000	      0.00000000	      0.00000000	      0.00000000	   -113.44842700	   1215.21105713	      3.03322049	      2.05081208	      0.00000000	      0.96664794	      0.00000000	      3.27980496	     -0.00000000
      0.00900000	      0.00000000	      0.00000000	      0.00000000	      0.00000000	      0.00000000	      0.00000000	      0.00000000	      0.00000000	      0.00000000	   -112.40452690	   1223.51704992	      6.03782905	      2.04954353	      0.00000000	      0.96656393	      0.00000000	      3.46180999	     -0.00000000
      0.01000000	      0.00000000	      0.00000000	      0.00000000	      0.00000000	      0.00000000	      0.00000000	      0.00000000	      0.00000000	      0.00000000	   -111.36062680	   1231.82304271	      9.04243761	      2.04827498	      0.00000000	      0.96647992	      0.00000000	      3.64381501	     -0.00000000
      0.01100000	      0.00000000	      0.00000000	      0.00000000	      0.00000000	      0.00000000	      0.00000000	      0.00000000	      0.00000000	      0.00000000	   -110.20459695	   1239.80640707	     11.88733501	      2.04697912	      0.00000000	      0.96639816	      0.00000000	      3.81339948	     -0.00000000
      0.01200000	      0.00000000	      0.00000000	      0.00000000	      0.00000000	      0.00000000	      0.00000000	      0.00000000	      0.00000000	      0.00000000	   -109.04856710	   1247.78977143	     14.73223241	      2.04568326	      0.00000000	      0.96631640	      0.00000000	      3.98298395	      0.00000000
      0.01300000	      0.00000000	      0.00000000	      0.00000000	      0.00000000	      0.00000000	      0.00000000	      0.00000000	      0.00000000	      0.00000000	   -107.89253724	   1255.77313579	     17.57712981	      2.04438741	      0.00000000	      0.96623464	      0.00000000	      4.15256842	      0.00000000
      0.01400000	      0.00000000	      0.00000000	      0.00000000	      0.00000000	      0.00000000	      0.00000000	      0.00000000	      0.00000000	      0.00000000	   -106.63993100	   1263.45509357	     20.28365233	      2.04306686	      0.00000000	      0.96615519	      0.00000000	      4.31114434	      0.00000000
      0.01500000	      0.00000000	      0.00000000	      0.00000000	      0.00000000	      0.00000000	      0.00000000	      0.00000000	      0.00000000	      0.00000000	   -105.33903656	   1270.98634805	     22.92098741	      2.04173397	      0.00000000	      0.96607690	      0.00000000	      4.46421599	      0.00000000
      0.01600000	      0.00000000	      0.00000000	      0.00000000	      0.00000000	      0.00000000	      0.00000000	      0.00000000	      0.00000000	      0.00000000	   -104.03814211	   1278.51760253	     25.55832248	      2.04040109	      0.00000000	      0.96599861	      0.00000000	      4.61728763	      0.00000000
      0.01700000	      0.00000000	      0.00000000	      0.00000000	      0.00000000	      0.00000000	      0.00000000	      0.00000000	      0.00000000	      0.00000000	   -102.67942760	   1285.85655425	     28.11250517	      2.03905288	      0.00000000	      0.96592188	      0.00000000	      4.76374098	      0.00000000
      0.01800000	      0.00000000	      0.00000000	      0.00000000	      0.00000000	      0.00000000	      0.00000000	      0.00000000	      0.00000000	      0.00000000	   -101.20507296	   1292.81090046	     30.50038308	      2.03767404	      0.00000000	      0.96584828	      0.00000000	      4.89695771	      0.00000000
      0.01900000	      0.00000000	      0.00000000	      0.00000000	      0.00000000	      0.00000000	      0.00000000	      0.00000000	      0.00000000	      0.00000000	    -99.73071832	   1299.76524666	     32.88826098	      2.03629520	      0.00000000	      0.96577468	      0.00000000	      5.03017445	      0.00000000
      0.02000000	      0.00000000	      0.00000000	      0.00000000	      0.00000000	      0.00000000	      0.00000000	      0.00000000	      0.00000000	      0.00000000	    -98.25636368	   1306.71959287	     35.27613889	      2.03491636	      0.00000000	      0.96570108	      0.00000000	      5.16339118	      0.00000000
      0.02100000	      0.00000000	      0.00000000	      0.00000000	      0.00000000	      0.00000000	      0.00000000	      0.00000000	      0.00000000	      0.00000000	    -96.58533828	   1312.97938928	     37.37976777	      2.03348386	      0.00000000	      0.96563338	      0.00000000	      5.27426345	      0.00000000
      0.02200000	      0.00000000	      0.00000000	      0.00000000	      0.00000000	      0.00000000	      0.00000000	      0.00000000	      0.00000000	      0.00000000	    -94.91431288	   1319.23918570	     39.48339665	      2.03205136	      0.00000000	      0.96556568	      0.00000000	      5.38513572	      0.00000000
      0.02300000	      0.00000000	      0.00000000	      0.00000000	      0.00000000	      0.00000000	      0.00000000	      0.00000000	      0.00000000	      0.00000000	    -93.24328747	   1325.49898211	     41.58702553	      2.03061887	      0.00000000	      0.96549798	      0.00000000	      5.49600799	      0.00000000
